<svg width="644" height="976" viewBox="0 0 644 976" fill="none" xmlns="http://www.w3.org/2000/svg">
<g style="mix-blend-mode:hard-light" opacity="0.2">
<path d="M-1906.68 937.426C-1394.01 928.171 -1060.56 1062.37 -844.943 1196.58C-665.195 1308.48 -640.273 1375.02 -470.206 1443.14C-101.151 1590.95 475.08 1555.43 627.079 1227.98C701.953 1066.67 600.354 946.196 549.466 657.702C503.694 398.179 503.236 14.5457 730.411 -499.652" stroke="url(#paint0_radial_534_799)" stroke-width="5" stroke-miterlimit="10"/>
<path d="M-1882.16 994.603C-1391.82 965.391 -1066.48 1086.65 -856.01 1208.53C-678.901 1311.12 -644.677 1367.79 -467.944 1430.63C-97.1986 1562.47 445.407 1532.71 603.872 1220.09C685.503 1059.07 600.693 934.236 559.981 642.329C524.142 385.336 528.701 6.15368 750.745 -502.073" stroke="url(#paint1_radial_534_799)" stroke-width="5" stroke-miterlimit="10"/>
<path d="M-1857.65 1051.76C-1389.64 1002.61 -1072.2 1110.9 -867.051 1220.46C-692.284 1313.8 -649.282 1360.65 -465.658 1418.11C-93.6978 1534.51 416.655 1510.07 580.712 1212.19C669.335 1051.26 600.908 922.491 570.533 626.953C544.411 372.646 554.207 -2.22693 771.151 -504.478" stroke="url(#paint2_radial_534_799)" stroke-width="5" stroke-miterlimit="10"/>
<path d="M-1833.13 1108.92C-1387.46 1039.82 -1077.66 1135.11 -878.07 1232.44C-705.452 1316.56 -654.093 1353.67 -463.342 1405.57C-90.5805 1507.1 388.803 1487.58 557.568 1204.28C653.463 1043.33 600.971 910.942 581.104 611.559C564.413 360.126 579.735 -10.6175 791.514 -506.894" stroke="url(#paint3_radial_534_799)" stroke-width="5" stroke-miterlimit="10"/>
<path d="M-1808.62 1166.05C-1385.24 1076.99 -1082.86 1159.19 -889.121 1244.32C-718.357 1319.36 -659.005 1346.81 -461.099 1393.08C-87.8951 1480.27 361.726 1465.32 534.361 1196.4C637.794 1035.29 600.765 899.585 591.609 596.196C584.116 347.754 605.199 -18.9893 811.849 -509.251" stroke="url(#paint4_radial_534_799)" stroke-width="5" stroke-miterlimit="10"/>
<path d="M-1784.11 1223.18C-1383.09 1114.2 -1087.75 1183.15 -900.156 1256.25C-730.952 1322.18 -664.157 1340.19 -458.812 1380.55C-85.4516 1453.96 335.476 1443.28 511.198 1188.51C622.457 1027.19 600.316 888.39 602.152 580.819C603.583 335.475 630.695 -27.3647 832.197 -511.707" stroke="url(#paint5_radial_534_799)" stroke-width="5" stroke-miterlimit="10"/>
<path d="M-1759.61 1280.29C-1380.92 1151.34 -1092.33 1206.88 -911.189 1268.17C-743.231 1325 -669.389 1333.75 -456.53 1368.04C-83.2278 1428.16 309.962 1421.54 488.035 1180.61C607.414 1019.09 599.703 877.267 612.698 565.452C622.791 323.27 656.222 -35.753 852.556 -514.112" stroke="url(#paint6_radial_534_799)" stroke-width="5" stroke-miterlimit="10"/>
<path d="M-1735.07 1337.39C-1378.69 1188.54 -1096.54 1230.34 -922.189 1280.07C-755.134 1327.73 -674.651 1327.52 -454.216 1355.52C-81.1499 1402.85 285.163 1400.08 464.907 1172.7C592.712 1011.03 598.806 866.247 623.272 550.065C641.729 311.136 681.694 -44.0888 872.919 -516.527" stroke="url(#paint7_radial_534_799)" stroke-width="5" stroke-miterlimit="10"/>
<path d="M-1710.6 1394.49C-1376.54 1225.72 -1100.46 1253.47 -933.245 1292.01C-766.71 1330.36 -680.079 1321.62 -451.957 1343.01C-79.2174 1378.01 260.937 1378.98 441.725 1164.83C578.28 1003.1 597.556 855.287 633.787 534.707C660.425 299.021 707.176 -52.494 893.324 -518.96" stroke="url(#paint8_radial_534_799)" stroke-width="5" stroke-miterlimit="10"/>
<path d="M-1686.11 1451.55C-1374.36 1262.86 -1104.04 1276.13 -944.282 1303.89C-777.979 1332.78 -685.538 1315.82 -449.682 1330.47C-77.3874 1353.59 237.236 1358.21 418.564 1156.9C564.14 995.296 596.037 844.302 644.322 519.313C678.861 286.888 732.667 -60.8938 913.63 -521.379" stroke="url(#paint9_radial_534_799)" stroke-width="5" stroke-miterlimit="10"/>
<path d="M-1661.6 1508.65C-1372.12 1300.02 -1107.3 1298.36 -955.287 1315.82C-788.856 1334.94 -690.965 1310.36 -447.378 1317.98C-75.5333 1329.61 214.062 1337.84 395.433 1149.04C550.363 987.756 594.225 833.342 654.882 503.968C697.082 274.792 758.173 -69.2419 934.014 -523.756" stroke="url(#paint10_radial_534_799)" stroke-width="5" stroke-miterlimit="10"/>
<path d="M-1637.1 1565.71C-1369.98 1337.18 -1110.31 1320 -966.31 1327.72C-799.462 1336.67 -696.368 1305.13 -445.091 1305.47C-73.6822 1305.96 191.296 1317.8 372.29 1141.14C536.898 980.477 592.099 822.301 665.433 488.609C715.087 262.63 783.663 -77.6206 954.367 -526.177" stroke="url(#paint11_radial_534_799)" stroke-width="5" stroke-miterlimit="10"/>
<path d="M-1612.6 1622.77C-1367.8 1374.32 -1113.17 1341.04 -977.328 1339.63C-809.852 1337.88 -701.815 1300.16 -442.794 1292.96C-71.7879 1282.65 168.874 1298.15 349.158 1133.24C523.73 973.551 589.67 811.177 675.981 473.245C732.893 250.415 809.156 -85.9899 974.732 -528.592" stroke="url(#paint12_radial_534_799)" stroke-width="5" stroke-miterlimit="10"/>
<path d="M-1588.11 1679.8C-1365.6 1411.44 -1115.93 1361.46 -988.347 1351.53C-820.131 1338.43 -707.182 1295.43 -440.524 1280.46C-69.8552 1259.63 146.705 1278.84 326.01 1125.36C510.924 967.025 586.915 799.932 686.515 457.889C750.524 238.116 834.638 -94.3825 995.099 -530.981" stroke="url(#paint13_radial_534_799)" stroke-width="5" stroke-miterlimit="10"/>
<path d="M-1563.62 1736.83C-1363.42 1448.56 -1118.72 1381.26 -999.396 1363.43C-830.487 1338.19 -712.519 1290.96 -438.241 1267.95C-67.8216 1236.88 124.779 1259.97 302.862 1117.47C498.408 960.993 583.877 788.537 697.04 442.511C767.949 225.719 860.104 -102.749 1015.41 -533.431" stroke="url(#paint14_radial_534_799)" stroke-width="5" stroke-miterlimit="10"/>
<path d="M-1539.13 1793.85C-1361.19 1485.66 -1121.65 1400.47 -1010.38 1375.31C-841.016 1337.01 -717.72 1286.69 -435.921 1255.43C-65.6557 1214.39 103.041 1241.43 279.768 1109.57C486.244 955.497 580.605 776.982 707.636 427.171C785.325 213.233 885.637 -111.105 1035.82 -535.825" stroke="url(#paint15_radial_534_799)" stroke-width="5" stroke-miterlimit="10"/>
<path d="M-1514.6 1850.83C-1359 1522.77 -1111.9 1447.51 -1021.35 1387.19C-873.253 1288.51 -722.816 1282.66 -433.58 1242.91C-63.3625 1192.05 81.3738 1223.27 256.644 1101.68C474.36 950.67 577.022 765.179 718.19 411.814C802.543 200.648 911.13 -119.471 1056.2 -538.209" stroke="url(#paint16_radial_534_799)" stroke-width="5" stroke-miterlimit="10"/>
<path d="M-1490.11 1908.27C-1356.8 1560.25 -1116.36 1460.65 -1032.33 1399.43C-885.043 1292.12 -727.801 1279.19 -431.2 1230.73C-60.7774 1170.24 59.8715 1205.82 233.703 1094.07C462.922 946.773 573.414 753.421 728.957 396.606C819.886 188.037 936.849 -127.789 1076.78 -540.671" stroke="url(#paint17_radial_534_799)" stroke-width="5" stroke-miterlimit="10"/>
<path d="M-1465.57 1965.81C-1354.55 1597.81 -1122.27 1473.44 -1043.24 1411.74C-895.728 1296.57 -732.615 1276 -428.729 1218.65C-58.0359 1148.64 38.3659 1188.77 210.823 1086.58C451.8 943.774 569.645 741.519 739.809 381.51C837.231 175.408 962.664 -136.028 1097.49 -543.03" stroke="url(#paint18_radial_534_799)" stroke-width="5" stroke-miterlimit="10"/>
<path d="M-1441.03 2023.35C-1352.3 1635.38 -1137.42 1475.02 -1054.16 1424.04C-890.129 1323.67 -737.302 1272.98 -426.28 1206.5C-55.1321 1127.13 16.7353 1172.03 187.919 1079.01C440.833 941.54 565.62 729.265 750.636 366.302C854.494 162.533 988.459 -144.339 1118.15 -545.486" stroke="url(#paint19_radial_534_799)" stroke-width="5" stroke-miterlimit="10"/>
<path d="M-1416.49 2080.89C-1350.05 1672.94 -1142.84 1493.59 -1065.09 1436.34C-905.235 1318.65 -741.891 1270.15 -423.845 1194.35C-52.1016 1105.74 -5.08402 1155.64 165 1071.45C430.034 940.264 561.456 716.853 761.455 351.163C871.699 149.582 1014.24 -152.6 1138.83 -547.874" stroke="url(#paint20_radial_534_799)" stroke-width="5" stroke-miterlimit="10"/>
<path d="M-1391.94 2138.44C-1347.8 1710.5 -1149 1512.5 -1076.01 1448.63C-921.594 1313.47 -746.348 1267.47 -421.4 1182.18C-48.9025 1084.41 -27.138 1139.55 142.088 1063.87C419.295 939.862 557.095 704.121 772.281 335.975C888.888 136.5 1040.02 -160.911 1159.49 -550.306" stroke="url(#paint21_radial_534_799)" stroke-width="5" stroke-miterlimit="10"/>
</g>
<defs>
<radialGradient id="paint0_radial_534_799" cx="0" cy="0" r="1" gradientUnits="userSpaceOnUse" gradientTransform="translate(-327.714 853.673) rotate(67.6943) scale(828.89 1492.6)">
<stop stop-color="#007AFF"/>
<stop offset="0.458333" stop-color="#312ECB"/>
<stop offset="1" stop-color="#E717AC"/>
</radialGradient>
<radialGradient id="paint1_radial_534_799" cx="0" cy="0" r="1" gradientUnits="userSpaceOnUse" gradientTransform="translate(-321.849 840.664) rotate(67.6936) scale(813.486 1501.98)">
<stop stop-color="#007AFF"/>
<stop offset="0.458333" stop-color="#312ECB"/>
<stop offset="1" stop-color="#E717AC"/>
</radialGradient>
<radialGradient id="paint2_radial_534_799" cx="0" cy="0" r="1" gradientUnits="userSpaceOnUse" gradientTransform="translate(-315.891 827.801) rotate(67.693) scale(798.209 1511.38)">
<stop stop-color="#007AFF"/>
<stop offset="0.458333" stop-color="#312ECB"/>
<stop offset="1" stop-color="#E717AC"/>
</radialGradient>
<radialGradient id="paint3_radial_534_799" cx="0" cy="0" r="1" gradientUnits="userSpaceOnUse" gradientTransform="translate(-309.893 815.081) rotate(67.6923) scale(783.108 1520.77)">
<stop stop-color="#007AFF"/>
<stop offset="0.458333" stop-color="#312ECB"/>
<stop offset="1" stop-color="#E717AC"/>
</radialGradient>
<radialGradient id="paint4_radial_534_799" cx="0" cy="0" r="1" gradientUnits="userSpaceOnUse" gradientTransform="translate(-303.841 802.549) rotate(67.6916) scale(768.157 1530.13)">
<stop stop-color="#007AFF"/>
<stop offset="0.458333" stop-color="#312ECB"/>
<stop offset="1" stop-color="#E717AC"/>
</radialGradient>
<radialGradient id="paint5_radial_534_799" cx="0" cy="0" r="1" gradientUnits="userSpaceOnUse" gradientTransform="translate(-297.717 790.133) rotate(67.6908) scale(753.429 1539.52)">
<stop stop-color="#007AFF"/>
<stop offset="0.458333" stop-color="#312ECB"/>
<stop offset="1" stop-color="#E717AC"/>
</radialGradient>
<radialGradient id="paint6_radial_534_799" cx="0" cy="0" r="1" gradientUnits="userSpaceOnUse" gradientTransform="translate(-291.518 777.911) rotate(67.6901) scale(738.857 1548.91)">
<stop stop-color="#007AFF"/>
<stop offset="0.458333" stop-color="#312ECB"/>
<stop offset="1" stop-color="#E717AC"/>
</radialGradient>
<radialGradient id="paint7_radial_534_799" cx="0" cy="0" r="1" gradientUnits="userSpaceOnUse" gradientTransform="translate(-285.232 765.845) rotate(67.6893) scale(724.473 1558.28)">
<stop stop-color="#007AFF"/>
<stop offset="0.458333" stop-color="#312ECB"/>
<stop offset="1" stop-color="#E717AC"/>
</radialGradient>
<radialGradient id="paint8_radial_534_799" cx="0" cy="0" r="1" gradientUnits="userSpaceOnUse" gradientTransform="translate(-278.886 753.955) rotate(67.6885) scale(710.275 1567.7)">
<stop stop-color="#007AFF"/>
<stop offset="0.458333" stop-color="#312ECB"/>
<stop offset="1" stop-color="#E717AC"/>
</radialGradient>
<radialGradient id="paint9_radial_534_799" cx="0" cy="0" r="1" gradientUnits="userSpaceOnUse" gradientTransform="translate(-272.511 742.215) rotate(67.6877) scale(696.253 1577.06)">
<stop stop-color="#007AFF"/>
<stop offset="0.458333" stop-color="#312ECB"/>
<stop offset="1" stop-color="#E717AC"/>
</radialGradient>
<radialGradient id="paint10_radial_534_799" cx="0" cy="0" r="1" gradientUnits="userSpaceOnUse" gradientTransform="translate(-266.018 730.687) rotate(67.6868) scale(682.404 1586.45)">
<stop stop-color="#007AFF"/>
<stop offset="0.458333" stop-color="#312ECB"/>
<stop offset="1" stop-color="#E717AC"/>
</radialGradient>
<radialGradient id="paint11_radial_534_799" cx="0" cy="0" r="1" gradientUnits="userSpaceOnUse" gradientTransform="translate(-259.483 719.281) rotate(67.686) scale(668.737 1595.83)">
<stop stop-color="#007AFF"/>
<stop offset="0.458333" stop-color="#312ECB"/>
<stop offset="1" stop-color="#E717AC"/>
</radialGradient>
<radialGradient id="paint12_radial_534_799" cx="0" cy="0" r="1" gradientUnits="userSpaceOnUse" gradientTransform="translate(-252.876 708.036) rotate(67.6851) scale(655.237 1605.22)">
<stop stop-color="#007AFF"/>
<stop offset="0.458333" stop-color="#312ECB"/>
<stop offset="1" stop-color="#E717AC"/>
</radialGradient>
<radialGradient id="paint13_radial_534_799" cx="0" cy="0" r="1" gradientUnits="userSpaceOnUse" gradientTransform="translate(-246.209 696.949) rotate(67.6842) scale(641.881 1614.6)">
<stop stop-color="#007AFF"/>
<stop offset="0.458333" stop-color="#312ECB"/>
<stop offset="1" stop-color="#E717AC"/>
</radialGradient>
<radialGradient id="paint14_radial_534_799" cx="0" cy="0" r="1" gradientUnits="userSpaceOnUse" gradientTransform="translate(-239.5 685.996) rotate(67.6833) scale(628.745 1623.97)">
<stop stop-color="#007AFF"/>
<stop offset="0.458333" stop-color="#312ECB"/>
<stop offset="1" stop-color="#E717AC"/>
</radialGradient>
<radialGradient id="paint15_radial_534_799" cx="0" cy="0" r="1" gradientUnits="userSpaceOnUse" gradientTransform="translate(-232.687 675.221) rotate(67.6823) scale(615.726 1633.37)">
<stop stop-color="#007AFF"/>
<stop offset="0.458333" stop-color="#312ECB"/>
<stop offset="1" stop-color="#E717AC"/>
</radialGradient>
<radialGradient id="paint16_radial_534_799" cx="0" cy="0" r="1" gradientUnits="userSpaceOnUse" gradientTransform="translate(-225.8 664.594) rotate(67.6814) scale(602.874 1642.73)">
<stop stop-color="#007AFF"/>
<stop offset="0.458333" stop-color="#312ECB"/>
<stop offset="1" stop-color="#E717AC"/>
</radialGradient>
<radialGradient id="paint17_radial_534_799" cx="0" cy="0" r="1" gradientUnits="userSpaceOnUse" gradientTransform="translate(-206.663 683.799) rotate(67.6823) scale(622.205 1652.29)">
<stop stop-color="#007AFF"/>
<stop offset="0.458333" stop-color="#312ECB"/>
<stop offset="1" stop-color="#E717AC"/>
</radialGradient>
<radialGradient id="paint18_radial_534_799" cx="0" cy="0" r="1" gradientUnits="userSpaceOnUse" gradientTransform="translate(-184.042 711.392) rotate(67.6837) scale(650.469 1661.87)">
<stop stop-color="#007AFF"/>
<stop offset="0.458333" stop-color="#312ECB"/>
<stop offset="1" stop-color="#E717AC"/>
</radialGradient>
<radialGradient id="paint19_radial_534_799" cx="0" cy="0" r="1" gradientUnits="userSpaceOnUse" gradientTransform="translate(-161.442 738.934) rotate(67.6849) scale(678.783 1671.45)">
<stop stop-color="#007AFF"/>
<stop offset="0.458333" stop-color="#312ECB"/>
<stop offset="1" stop-color="#E717AC"/>
</radialGradient>
<radialGradient id="paint20_radial_534_799" cx="0" cy="0" r="1" gradientUnits="userSpaceOnUse" gradientTransform="translate(-138.833 766.509) rotate(67.6861) scale(707.065 1681.03)">
<stop stop-color="#007AFF"/>
<stop offset="0.458333" stop-color="#312ECB"/>
<stop offset="1" stop-color="#E717AC"/>
</radialGradient>
<radialGradient id="paint21_radial_534_799" cx="0" cy="0" r="1" gradientUnits="userSpaceOnUse" gradientTransform="translate(-116.226 794.066) rotate(67.6872) scale(735.376 1690.61)">
<stop stop-color="#007AFF"/>
<stop offset="0.458333" stop-color="#312ECB"/>
<stop offset="1" stop-color="#E717AC"/>
</radialGradient>
</defs>
</svg>
