<svg width="93" height="93" viewBox="0 0 93 93" fill="none" xmlns="http://www.w3.org/2000/svg">
<path d="M0.755066 25.4256L1.9619 18.5424C2.12751 17.5979 2.91557 16.9127 3.83401 16.9127C3.83782 16.9127 3.83972 16.9127 3.84353 16.9127C4.76674 16.9167 5.55194 17.6108 5.70993 18.5593L16.5667 83.826L71.8973 83.828C73.2231 83.828 74.45 83.2559 75.3551 82.2181C76.3925 81.0254 76.9702 79.2468 76.8313 77.7224C76.4258 74.0489 73.8808 71.3814 70.7838 71.3814H24.6081C23.6801 71.3814 22.8864 70.6832 22.7322 69.7269L11.9221 3.04202C11.8288 2.46503 11.983 1.87513 12.3456 1.42823C12.7063 0.981335 13.2384 0.724121 13.798 0.724121H59.9375C70.463 0.724121 80.7382 9.65609 82.8445 20.6279L92.7028 70.9951C93.5899 76.8921 92.2136 82.4356 88.8273 86.6077C85.5018 90.7042 80.6259 92.9605 75.0972 92.9605L74.2158 92.9576C74.1987 92.9576 74.1825 92.9585 74.1635 92.9585C71.2187 92.9615 14.902 92.9655 14.3148 92.9655C12.1838 92.9655 10.3679 91.3726 9.99096 89.1351L0.746498 26.081C0.713186 25.8645 0.717947 25.6411 0.755066 25.4256Z" fill="white"/>
</svg>
