<svg xmlns="http://www.w3.org/2000/svg" version="1.1" xmlns:xlink="http://www.w3.org/1999/xlink" xmlns:svgjs="http://svgjs.dev/svgjs" width="2000" height="1500" viewBox="0 0 2000 1500"><rect width="2000" height="1500" fill="#6936f5"></rect><g transform="matrix(0.75,0,0,0.75,249.090909090909,282.7536437246963)"><svg viewBox="0 0 396 247" data-background-color="#6936f5" preserveAspectRatio="xMidYMid meet" height="1247" width="2000" xmlns="http://www.w3.org/2000/svg" xmlns:xlink="http://www.w3.org/1999/xlink"><g id="tight-bounds" transform="matrix(1,0,0,1,0.2400000000000091,-0.09999999999999432)"><svg viewBox="0 0 395.52 247.2" height="247.2" width="395.52"><g><svg></svg></g><g><svg viewBox="0 0 395.52 247.2" height="247.2" width="395.52"><g transform="matrix(1,0,0,1,75.54432,93.34437365761256)"><svg viewBox="0 0 244.43135999999998 60.51125268477485" height="60.51125268477485" width="244.43135999999998"><g><svg viewBox="0 0 244.43135999999998 60.51125268477485" height="60.51125268477485" width="244.43135999999998"><g><svg viewBox="0 0 341.7458525507593 84.60235886947078" height="60.51125268477485" width="244.43135999999998"><g transform="matrix(1,0,0,1,97.31449255075934,11.69251124751731)"><svg viewBox="0 0 244.43135999999998 61.21733637443616" height="61.21733637443616" width="244.43135999999998"><g id="textblocktransform"><svg viewBox="0 0 244.43135999999998 61.21733637443616" height="61.21733637443616" width="244.43135999999998" id="textblock"><g><svg viewBox="0 0 244.43135999999998 36.81066505097582" height="36.81066505097582" width="244.43135999999998"><g transform="matrix(1,0,0,1,0,0)"><svg width="244.43135999999998" viewBox="3.85 -38.2 343.27 51.7" height="36.81066505097582" data-palette-color="#ffffff"><path d="M14.7-34.85Q20.4-34.85 24.58-32.73 28.75-30.6 30.98-26.65 33.2-22.7 33.2-17.35L33.2-17.35Q33.2-12 30.98-8.08 28.75-4.15 24.58-2.08 20.4 0 14.7 0L14.7 0 3.85 0 3.85-34.85 14.7-34.85ZM14.7-3.75Q21.45-3.75 25-7.33 28.55-10.9 28.55-17.35L28.55-17.35Q28.55-23.85 24.98-27.5 21.4-31.15 14.7-31.15L14.7-31.15 8.4-31.15 8.4-3.75 14.7-3.75ZM41.55-31.85Q40.25-31.85 39.35-32.75 38.45-33.65 38.45-34.95L38.45-34.95Q38.45-36.25 39.35-37.15 40.25-38.05 41.55-38.05L41.55-38.05Q42.8-38.05 43.67-37.15 44.55-36.25 44.55-34.95L44.55-34.95Q44.55-33.65 43.67-32.75 42.8-31.85 41.55-31.85L41.55-31.85ZM39.2-27.4L43.75-27.4 43.75 0 39.2 0 39.2-27.4ZM62.8-27.85Q66.35-27.85 69.02-26.3 71.7-24.75 73-22.4L73-22.4 73-27.4 77.6-27.4 77.6 0.6Q77.6 4.35 76 7.28 74.4 10.2 71.42 11.85 68.45 13.5 64.5 13.5L64.5 13.5Q59.1 13.5 55.5 10.95 51.9 8.4 51.25 4L51.25 4 55.75 4Q56.5 6.5 58.85 8.03 61.2 9.55 64.5 9.55L64.5 9.55Q68.25 9.55 70.62 7.2 73 4.85 73 0.6L73 0.6 73-5.15Q71.65-2.75 69-1.15 66.35 0.45 62.8 0.45L62.8 0.45Q59.15 0.45 56.17-1.35 53.2-3.15 51.5-6.4 49.8-9.65 49.8-13.8L49.8-13.8Q49.8-18 51.5-21.18 53.2-24.35 56.17-26.1 59.15-27.85 62.8-27.85L62.8-27.85ZM73-13.75Q73-16.85 71.75-19.15 70.5-21.45 68.37-22.68 66.25-23.9 63.7-23.9L63.7-23.9Q61.15-23.9 59.05-22.7 56.95-21.5 55.7-19.2 54.45-16.9 54.45-13.8L54.45-13.8Q54.45-10.65 55.7-8.33 56.95-6 59.05-4.78 61.15-3.55 63.7-3.55L63.7-3.55Q66.25-3.55 68.37-4.78 70.5-6 71.75-8.33 73-10.65 73-13.75L73-13.75ZM87.64-31.85Q86.34-31.85 85.44-32.75 84.54-33.65 84.54-34.95L84.54-34.95Q84.54-36.25 85.44-37.15 86.34-38.05 87.64-38.05L87.64-38.05Q88.89-38.05 89.77-37.15 90.64-36.25 90.64-34.95L90.64-34.95Q90.64-33.65 89.77-32.75 88.89-31.85 87.64-31.85L87.64-31.85ZM85.29-27.4L89.84-27.4 89.84 0 85.29 0 85.29-27.4ZM128.39-17.95Q130.29-17.65 131.86-16.4 133.44-15.15 134.36-13.3 135.29-11.45 135.29-9.35L135.29-9.35Q135.29-6.7 133.94-4.58 132.59-2.45 130.01-1.23 127.44 0 123.94 0L123.94 0 110.94 0 110.94-34.85 123.44-34.85Q126.99-34.85 129.49-33.68 131.99-32.5 133.24-30.5 134.49-28.5 134.49-26L134.49-26Q134.49-22.9 132.81-20.88 131.14-18.85 128.39-17.95L128.39-17.95ZM115.49-31.1L115.49-19.8 123.14-19.8Q126.34-19.8 128.09-21.3 129.84-22.8 129.84-25.45L129.84-25.45Q129.84-28.1 128.09-29.6 126.34-31.1 123.04-31.1L123.04-31.1 115.49-31.1ZM123.54-3.75Q126.94-3.75 128.84-5.35 130.74-6.95 130.74-9.8L130.74-9.8Q130.74-12.7 128.74-14.38 126.74-16.05 123.39-16.05L123.39-16.05 115.49-16.05 115.49-3.75 123.54-3.75ZM153.54 0.45Q149.69 0.45 146.56-1.3 143.44-3.05 141.66-6.28 139.89-9.5 139.89-13.75L139.89-13.75Q139.89-17.95 141.71-21.18 143.54-24.4 146.69-26.13 149.84-27.85 153.74-27.85L153.74-27.85Q157.64-27.85 160.79-26.13 163.94-24.4 165.76-21.2 167.59-18 167.59-13.75L167.59-13.75Q167.59-9.5 165.71-6.28 163.84-3.05 160.64-1.3 157.44 0.45 153.54 0.45L153.54 0.45ZM153.54-3.55Q155.99-3.55 158.14-4.7 160.29-5.85 161.61-8.15 162.94-10.45 162.94-13.75L162.94-13.75Q162.94-17.05 161.64-19.35 160.34-21.65 158.24-22.78 156.14-23.9 153.69-23.9L153.69-23.9Q151.19-23.9 149.11-22.78 147.04-21.65 145.79-19.35 144.54-17.05 144.54-13.75L144.54-13.75Q144.54-10.4 145.76-8.1 146.99-5.8 149.04-4.67 151.09-3.55 153.54-3.55L153.54-3.55ZM185.53 0.45Q181.68 0.45 178.56-1.3 175.43-3.05 173.66-6.28 171.88-9.5 171.88-13.75L171.88-13.75Q171.88-17.95 173.71-21.18 175.53-24.4 178.68-26.13 181.83-27.85 185.73-27.85L185.73-27.85Q189.63-27.85 192.78-26.13 195.93-24.4 197.76-21.2 199.58-18 199.58-13.75L199.58-13.75Q199.58-9.5 197.71-6.28 195.83-3.05 192.63-1.3 189.43 0.45 185.53 0.45L185.53 0.45ZM185.53-3.55Q187.98-3.55 190.13-4.7 192.28-5.85 193.61-8.15 194.93-10.45 194.93-13.75L194.93-13.75Q194.93-17.05 193.63-19.35 192.33-21.65 190.23-22.78 188.13-23.9 185.68-23.9L185.68-23.9Q183.18-23.9 181.11-22.78 179.03-21.65 177.78-19.35 176.53-17.05 176.53-13.75L176.53-13.75Q176.53-10.4 177.76-8.1 178.98-5.8 181.03-4.67 183.08-3.55 185.53-3.55L185.53-3.55ZM227.08 0L220.88 0 210.13-12.1 210.13 0 205.58 0 205.58-37 210.13-37 210.13-15.25 220.68-27.4 227.03-27.4 214.13-13.75 227.08 0ZM242.38 0.35Q238.93 0.35 236.2-0.88 233.48-2.1 231.93-4.28 230.38-6.45 230.33-9.3L230.33-9.3 235.18-9.3Q235.43-6.85 237.2-5.18 238.98-3.5 242.38-3.5L242.38-3.5Q245.63-3.5 247.5-5.13 249.38-6.75 249.38-9.3L249.38-9.3Q249.38-11.3 248.28-12.55 247.18-13.8 245.53-14.45 243.88-15.1 241.08-15.85L241.08-15.85Q237.63-16.75 235.55-17.65 233.48-18.55 232-20.48 230.53-22.4 230.53-25.65L230.53-25.65Q230.53-28.5 231.98-30.7 233.43-32.9 236.05-34.1 238.68-35.3 242.08-35.3L242.08-35.3Q246.98-35.3 250.1-32.85 253.23-30.4 253.63-26.35L253.63-26.35 248.63-26.35Q248.38-28.35 246.53-29.88 244.68-31.4 241.63-31.4L241.63-31.4Q238.78-31.4 236.98-29.93 235.18-28.45 235.18-25.8L235.18-25.8Q235.18-23.9 236.25-22.7 237.33-21.5 238.9-20.88 240.48-20.25 243.33-19.45L243.33-19.45Q246.78-18.5 248.88-17.57 250.98-16.65 252.48-14.73 253.98-12.8 253.98-9.5L253.98-9.5Q253.98-6.95 252.63-4.7 251.28-2.45 248.63-1.05 245.98 0.35 242.38 0.35L242.38 0.35ZM274.28-27.9Q277.38-27.9 279.88-26.58 282.38-25.25 283.8-22.6 285.23-19.95 285.23-16.15L285.23-16.15 285.23 0 280.73 0 280.73-15.5Q280.73-19.6 278.68-21.78 276.63-23.95 273.08-23.95L273.08-23.95Q269.48-23.95 267.35-21.7 265.23-19.45 265.23-15.15L265.23-15.15 265.23 0 260.68 0 260.68-37 265.23-37 265.23-23.5Q266.58-25.6 268.95-26.75 271.33-27.9 274.28-27.9L274.28-27.9ZM317.67-14.75Q317.67-13.45 317.52-12L317.52-12 295.62-12Q295.87-7.95 298.4-5.68 300.92-3.4 304.52-3.4L304.52-3.4Q307.47-3.4 309.45-4.78 311.42-6.15 312.22-8.45L312.22-8.45 317.12-8.45Q316.02-4.5 312.72-2.02 309.42 0.45 304.52 0.45L304.52 0.45Q300.62 0.45 297.55-1.3 294.47-3.05 292.72-6.28 290.97-9.5 290.97-13.75L290.97-13.75Q290.97-18 292.67-21.2 294.37-24.4 297.45-26.13 300.52-27.85 304.52-27.85L304.52-27.85Q308.42-27.85 311.42-26.15 314.42-24.45 316.05-21.48 317.67-18.5 317.67-14.75L317.67-14.75ZM312.97-15.7Q312.97-18.3 311.82-20.18 310.67-22.05 308.7-23.03 306.72-24 304.32-24L304.32-24Q300.87-24 298.45-21.8 296.02-19.6 295.67-15.7L295.67-15.7 312.97-15.7ZM323.67-37L328.22-37 328.22 0 323.67 0 323.67-37ZM347.12-27.4L347.12-23.65 341.37-23.65 341.37 0 336.82 0 336.82-23.65 333.27-23.65 333.27-27.4 336.82-27.4 336.82-29.35Q336.82-33.95 339.19-36.08 341.57-38.2 346.82-38.2L346.82-38.2 346.82-34.4Q343.82-34.4 342.59-33.23 341.37-32.05 341.37-29.35L341.37-29.35 341.37-27.4 347.12-27.4Z" opacity="1" transform="matrix(1,0,0,1,0,0)" fill="#ffffff" class="undefined-text-0" data-fill-palette-color="primary" id="text-0"></path></svg></g></svg></g><g transform="matrix(1,0,0,1,0,45.50077961354999)"><svg viewBox="0 0 244.43135999999998 15.716556760886169" height="15.716556760886169" width="244.43135999999998"><g transform="matrix(1,0,0,1,0,0)"><svg width="244.43135999999998" viewBox="4 -37.6 785.32 50.5" height="15.716556760886169" data-palette-color="#ffffff"><path d="M26.8 0L22.6 0 13.95-14.6 7.5-14.6 7.5 0 4 0 4-34.95 14.5-34.95Q20.35-34.95 23.38-32.15 26.4-29.35 26.4-24.8L26.4-24.8Q26.4-21 24.23-18.32 22.05-15.65 17.8-14.85L17.8-14.85 26.8 0ZM7.5-32L7.5-17.45 14.55-17.45Q18.65-17.45 20.73-19.45 22.8-21.45 22.8-24.8L22.8-24.8Q22.8-28.25 20.8-30.13 18.8-32 14.5-32L14.5-32 7.5-32ZM58.05-15.05Q58.05-13.25 57.95-12.3L57.95-12.3 35.3-12.3Q35.45-9.2 36.8-7 38.15-4.8 40.35-3.68 42.55-2.55 45.15-2.55L45.15-2.55Q48.55-2.55 50.87-4.2 53.2-5.85 53.95-8.65L53.95-8.65 57.65-8.65Q56.65-4.65 53.37-2.13 50.1 0.4 45.15 0.4L45.15 0.4Q41.3 0.4 38.25-1.33 35.2-3.05 33.47-6.23 31.75-9.4 31.75-13.65L31.75-13.65Q31.75-17.9 33.45-21.1 35.15-24.3 38.2-26 41.25-27.7 45.15-27.7L45.15-27.7Q49.05-27.7 51.97-26 54.9-24.3 56.47-21.43 58.05-18.55 58.05-15.05L58.05-15.05ZM54.5-15.15Q54.55-18.2 53.27-20.35 52-22.5 49.8-23.6 47.6-24.7 45-24.7L45-24.7Q41.1-24.7 38.35-22.2 35.6-19.7 35.3-15.15L35.3-15.15 54.5-15.15ZM62.85-13.7Q62.85-17.9 64.52-21.08 66.2-24.25 69.17-25.98 72.15-27.7 75.9-27.7L75.9-27.7Q79.8-27.7 82.62-25.9 85.45-24.1 86.7-21.3L86.7-21.3 86.7-27.3 90.2-27.3 90.2 0 86.7 0 86.7-6.05Q85.4-3.25 82.57-1.43 79.75 0.4 75.85 0.4L75.85 0.4Q72.15 0.4 69.17-1.35 66.2-3.1 64.52-6.3 62.85-9.5 62.85-13.7L62.85-13.7ZM86.7-13.65Q86.7-16.95 85.35-19.45 84-21.95 81.67-23.3 79.35-24.65 76.55-24.65L76.55-24.65Q73.65-24.65 71.35-23.35 69.05-22.05 67.72-19.58 66.4-17.1 66.4-13.7L66.4-13.7Q66.4-10.35 67.72-7.83 69.05-5.3 71.35-3.98 73.65-2.65 76.55-2.65L76.55-2.65Q79.35-2.65 81.67-4 84-5.35 85.35-7.85 86.7-10.35 86.7-13.65L86.7-13.65ZM96.59-13.7Q96.59-17.9 98.29-21.08 99.99-24.25 102.97-25.98 105.94-27.7 109.69-27.7L109.69-27.7Q113.29-27.7 116.19-25.95 119.09-24.2 120.44-21.4L120.44-21.4 120.44-37 123.94-37 123.94 0 120.44 0 120.44-6.1Q119.19-3.25 116.34-1.43 113.49 0.4 109.64 0.4L109.64 0.4Q105.89 0.4 102.92-1.35 99.94-3.1 98.27-6.3 96.59-9.5 96.59-13.7L96.59-13.7ZM120.44-13.65Q120.44-16.95 119.09-19.45 117.74-21.95 115.42-23.3 113.09-24.65 110.29-24.65L110.29-24.65Q107.39-24.65 105.09-23.35 102.79-22.05 101.47-19.58 100.14-17.1 100.14-13.7L100.14-13.7Q100.14-10.35 101.47-7.83 102.79-5.3 105.09-3.98 107.39-2.65 110.29-2.65L110.29-2.65Q113.09-2.65 115.42-4 117.74-5.35 119.09-7.85 120.44-10.35 120.44-13.65L120.44-13.65ZM131.24-5.8L135.14-5.8 129.94 7.3 127.54 7.3 131.24-5.8ZM151.78-34.95L174.74-34.95 174.74-32.05 165.03-32.05 165.03 0 161.53 0 161.53-32.05 151.78-32.05 151.78-34.95ZM193.28-27.8Q196.38-27.8 198.86-26.5 201.33-25.2 202.76-22.53 204.18-19.85 204.18-16L204.18-16 204.18 0 200.73 0 200.73-15.6Q200.73-20.05 198.51-22.4 196.28-24.75 192.43-24.75L192.43-24.75Q188.48-24.75 186.13-22.25 183.78-19.75 183.78-14.9L183.78-14.9 183.78 0 180.28 0 180.28-37 183.78-37 183.78-22.65Q185.08-25.1 187.61-26.45 190.13-27.8 193.28-27.8L193.28-27.8ZM215.43-22.45Q216.58-25 218.96-26.4 221.33-27.8 224.78-27.8L224.78-27.8 224.78-24.15 223.83-24.15Q220.03-24.15 217.73-22.1 215.43-20.05 215.43-15.25L215.43-15.25 215.43 0 211.93 0 211.93-27.3 215.43-27.3 215.43-22.45ZM231.78-32.45Q230.73-32.45 229.98-33.2 229.23-33.95 229.23-35.05L229.23-35.05Q229.23-36.15 229.98-36.88 230.73-37.6 231.78-37.6L231.78-37.6Q232.83-37.6 233.58-36.88 234.33-36.15 234.33-35.05L234.33-35.05Q234.33-33.95 233.58-33.2 232.83-32.45 231.78-32.45L231.78-32.45ZM230.03-27.3L233.53-27.3 233.53 0 230.03 0 230.03-27.3ZM241.97-27.3L251.17-3.4 260.38-27.3 264.07-27.3 253.13 0 249.17 0 238.22-27.3 241.97-27.3ZM293.52-15.05Q293.52-13.25 293.42-12.3L293.42-12.3 270.77-12.3Q270.92-9.2 272.27-7 273.62-4.8 275.82-3.68 278.02-2.55 280.62-2.55L280.62-2.55Q284.02-2.55 286.35-4.2 288.67-5.85 289.42-8.65L289.42-8.65 293.12-8.65Q292.12-4.65 288.85-2.13 285.57 0.4 280.62 0.4L280.62 0.4Q276.77 0.4 273.72-1.33 270.67-3.05 268.95-6.23 267.22-9.4 267.22-13.65L267.22-13.65Q267.22-17.9 268.92-21.1 270.62-24.3 273.67-26 276.72-27.7 280.62-27.7L280.62-27.7Q284.52-27.7 287.45-26 290.37-24.3 291.95-21.43 293.52-18.55 293.52-15.05L293.52-15.05ZM289.97-15.15Q290.02-18.2 288.75-20.35 287.47-22.5 285.27-23.6 283.07-24.7 280.47-24.7L280.47-24.7Q276.57-24.7 273.82-22.2 271.07-19.7 270.77-15.15L270.77-15.15 289.97-15.15ZM299.22-5.8L303.12-5.8 297.92 7.3 295.52 7.3 299.22-5.8ZM320.66-13.7Q320.66-17.9 322.34-21.08 324.01-24.25 326.99-25.98 329.96-27.7 333.71-27.7L333.71-27.7Q337.62-27.7 340.44-25.9 343.26-24.1 344.51-21.3L344.51-21.3 344.51-27.3 348.01-27.3 348.01 0 344.51 0 344.51-6.05Q343.21-3.25 340.39-1.43 337.56 0.4 333.66 0.4L333.66 0.4Q329.96 0.4 326.99-1.35 324.01-3.1 322.34-6.3 320.66-9.5 320.66-13.7L320.66-13.7ZM344.51-13.65Q344.51-16.95 343.16-19.45 341.81-21.95 339.49-23.3 337.16-24.65 334.37-24.65L334.37-24.65Q331.46-24.65 329.16-23.35 326.87-22.05 325.54-19.58 324.21-17.1 324.21-13.7L324.21-13.7Q324.21-10.35 325.54-7.83 326.87-5.3 329.16-3.98 331.46-2.65 334.37-2.65L334.37-2.65Q337.16-2.65 339.49-4 341.81-5.35 343.16-7.85 344.51-10.35 344.51-13.65L344.51-13.65ZM368.81-27.8Q373.71-27.8 376.81-24.78 379.91-21.75 379.91-16L379.91-16 379.91 0 376.46 0 376.46-15.6Q376.46-20.05 374.24-22.4 372.01-24.75 368.16-24.75L368.16-24.75Q364.21-24.75 361.86-22.25 359.51-19.75 359.51-14.9L359.51-14.9 359.51 0 356.01 0 356.01-27.3 359.51-27.3 359.51-22.65Q360.81-25.15 363.26-26.48 365.71-27.8 368.81-27.8L368.81-27.8ZM386.06-13.7Q386.06-17.9 387.76-21.08 389.46-24.25 392.43-25.98 395.41-27.7 399.16-27.7L399.16-27.7Q402.76-27.7 405.66-25.95 408.56-24.2 409.91-21.4L409.91-21.4 409.91-37 413.41-37 413.41 0 409.91 0 409.91-6.1Q408.66-3.25 405.81-1.43 402.96 0.4 399.11 0.4L399.11 0.4Q395.36 0.4 392.38-1.35 389.41-3.1 387.73-6.3 386.06-9.5 386.06-13.7L386.06-13.7ZM409.91-13.65Q409.91-16.95 408.56-19.45 407.21-21.95 404.88-23.3 402.56-24.65 399.76-24.65L399.76-24.65Q396.86-24.65 394.56-23.35 392.26-22.05 390.93-19.58 389.61-17.1 389.61-13.7L389.61-13.7Q389.61-10.35 390.93-7.83 392.26-5.3 394.56-3.98 396.86-2.65 399.76-2.65L399.76-2.65Q402.56-2.65 404.88-4 407.21-5.35 408.56-7.85 409.91-10.35 409.91-13.65L409.91-13.65ZM453.35-32.1L438.6-32.1 438.6-19.05 451.85-19.05 451.85-16.15 438.6-16.15 438.6-2.9 453.35-2.9 453.35 0 435.1 0 435.1-35 453.35-35 453.35-32.1ZM478.5 0L474.55 0 467.5-11 460.7 0 457 0 465.8-13.65 457.1-27.3 461.05-27.3 468-16.45 474.75-27.3 478.4-27.3 469.7-13.8 478.5 0ZM486.7-21.3Q488-24.05 490.82-25.88 493.65-27.7 497.55-27.7L497.55-27.7Q501.25-27.7 504.22-25.98 507.2-24.25 508.87-21.08 510.55-17.9 510.55-13.7L510.55-13.7Q510.55-9.5 508.87-6.3 507.2-3.1 504.22-1.35 501.25 0.4 497.55 0.4L497.55 0.4Q493.7 0.4 490.85-1.43 488-3.25 486.7-6L486.7-6 486.7 12.9 483.25 12.9 483.25-27.3 486.7-27.3 486.7-21.3ZM507-13.7Q507-17.1 505.67-19.58 504.35-22.05 502.05-23.35 499.75-24.65 496.85-24.65L496.85-24.65Q494.05-24.65 491.72-23.3 489.4-21.95 488.05-19.45 486.7-16.95 486.7-13.65L486.7-13.65Q486.7-10.35 488.05-7.85 489.4-5.35 491.72-4 494.05-2.65 496.85-2.65L496.85-2.65Q499.75-2.65 502.05-3.98 504.35-5.3 505.67-7.83 507-10.35 507-13.7L507-13.7ZM517-37L520.5-37 520.5 0 517 0 517-37ZM540.39 0.4Q536.54 0.4 533.47-1.33 530.39-3.05 528.62-6.23 526.84-9.4 526.84-13.65L526.84-13.65Q526.84-17.9 528.64-21.08 530.44-24.25 533.54-25.98 536.64-27.7 540.49-27.7L540.49-27.7Q544.34-27.7 547.47-25.98 550.59-24.25 552.37-21.08 554.14-17.9 554.14-13.65L554.14-13.65Q554.14-9.45 552.34-6.25 550.54-3.05 547.39-1.33 544.24 0.4 540.39 0.4L540.39 0.4ZM540.39-2.65Q543.09-2.65 545.39-3.88 547.69-5.1 549.12-7.58 550.54-10.05 550.54-13.65L550.54-13.65Q550.54-17.25 549.14-19.73 547.74-22.2 545.44-23.43 543.14-24.65 540.44-24.65L540.44-24.65Q537.74-24.65 535.44-23.43 533.14-22.2 531.77-19.73 530.39-17.25 530.39-13.65L530.39-13.65Q530.39-10.05 531.77-7.58 533.14-5.1 535.42-3.88 537.69-2.65 540.39-2.65L540.39-2.65ZM564.04-22.45Q565.19-25 567.57-26.4 569.94-27.8 573.39-27.8L573.39-27.8 573.39-24.15 572.44-24.15Q568.64-24.15 566.34-22.1 564.04-20.05 564.04-15.25L564.04-15.25 564.04 0 560.54 0 560.54-27.3 564.04-27.3 564.04-22.45ZM603.34-15.05Q603.34-13.25 603.24-12.3L603.24-12.3 580.59-12.3Q580.74-9.2 582.09-7 583.44-4.8 585.64-3.68 587.84-2.55 590.44-2.55L590.44-2.55Q593.84-2.55 596.16-4.2 598.49-5.85 599.24-8.65L599.24-8.65 602.94-8.65Q601.94-4.65 598.66-2.13 595.39 0.4 590.44 0.4L590.44 0.4Q586.59 0.4 583.54-1.33 580.49-3.05 578.76-6.23 577.04-9.4 577.04-13.65L577.04-13.65Q577.04-17.9 578.74-21.1 580.44-24.3 583.49-26 586.54-27.7 590.44-27.7L590.44-27.7Q594.34-27.7 597.26-26 600.19-24.3 601.76-21.43 603.34-18.55 603.34-15.05L603.34-15.05ZM599.79-15.15Q599.84-18.2 598.56-20.35 597.29-22.5 595.09-23.6 592.89-24.7 590.29-24.7L590.29-24.7Q586.39-24.7 583.64-22.2 580.89-19.7 580.59-15.15L580.59-15.15 599.79-15.15ZM655.98-27.3L659.43-27.3 650.88 0 647.38 0 639.83-22.9 632.28 0 628.73 0 620.18-27.3 623.73-27.3 630.53-3.55 638.18-27.3 641.68-27.3 649.23-3.5 655.98-27.3ZM665.93-32.45Q664.88-32.45 664.13-33.2 663.38-33.95 663.38-35.05L663.38-35.05Q663.38-36.15 664.13-36.88 664.88-37.6 665.93-37.6L665.93-37.6Q666.98-37.6 667.73-36.88 668.48-36.15 668.48-35.05L668.48-35.05Q668.48-33.95 667.73-33.2 666.98-32.45 665.93-32.45L665.93-32.45ZM664.18-27.3L667.68-27.3 667.68 0 664.18 0 664.18-27.3ZM687.68-24.35L680.18-24.35 680.18-7.4Q680.18-4.9 681.13-3.95 682.08-3 684.48-3L684.48-3 687.68-3 687.68 0 683.93 0Q680.23 0 678.43-1.73 676.63-3.45 676.63-7.4L676.63-7.4 676.63-24.35 672.83-24.35 672.83-27.3 676.63-27.3 676.63-34.15 680.18-34.15 680.18-27.3 687.68-27.3 687.68-24.35ZM706.43-27.8Q709.53-27.8 712-26.5 714.48-25.2 715.9-22.53 717.33-19.85 717.33-16L717.33-16 717.33 0 713.88 0 713.88-15.6Q713.88-20.05 711.65-22.4 709.43-24.75 705.58-24.75L705.58-24.75Q701.63-24.75 699.28-22.25 696.93-19.75 696.93-14.9L696.93-14.9 696.93 0 693.43 0 693.43-37 696.93-37 696.93-22.65Q698.23-25.1 700.75-26.45 703.28-27.8 706.43-27.8L706.43-27.8ZM758.92-27.3L762.42-27.3 762.42 0 758.92 0 758.92-4.8Q757.72-2.25 755.22-0.9 752.72 0.45 749.62 0.45L749.62 0.45Q744.72 0.45 741.62-2.58 738.52-5.6 738.52-11.35L738.52-11.35 738.52-27.3 741.97-27.3 741.97-11.75Q741.97-7.3 744.2-4.95 746.42-2.6 750.27-2.6L750.27-2.6Q754.22-2.6 756.57-5.1 758.92-7.6 758.92-12.45L758.92-12.45 758.92-27.3ZM779.82 0.4Q775.12 0.4 772.14-1.78 769.17-3.95 768.82-7.7L768.82-7.7 772.42-7.7Q772.67-5.4 774.59-3.98 776.52-2.55 779.77-2.55L779.77-2.55Q782.62-2.55 784.24-3.9 785.87-5.25 785.87-7.25L785.87-7.25Q785.87-8.65 784.97-9.55 784.07-10.45 782.69-10.98 781.32-11.5 778.97-12.1L778.97-12.1Q775.92-12.9 774.02-13.7 772.12-14.5 770.79-16.07 769.47-17.65 769.47-20.3L769.47-20.3Q769.47-22.3 770.67-24 771.87-25.7 774.07-26.7 776.27-27.7 779.07-27.7L779.07-27.7Q783.47-27.7 786.17-25.48 788.87-23.25 789.07-19.35L789.07-19.35 785.57-19.35Q785.42-21.75 783.69-23.23 781.97-24.7 778.97-24.7L778.97-24.7Q776.32-24.7 774.67-23.45 773.02-22.2 773.02-20.35L773.02-20.35Q773.02-18.75 773.99-17.73 774.97-16.7 776.42-16.13 777.87-15.55 780.32-14.85L780.32-14.85Q783.27-14.05 785.02-13.3 786.77-12.55 788.02-11.1 789.27-9.65 789.32-7.25L789.32-7.25Q789.32-5.05 788.12-3.33 786.92-1.6 784.77-0.6 782.62 0.4 779.82 0.4L779.82 0.4Z" opacity="1" transform="matrix(1,0,0,1,0,0)" fill="#ffffff" class="undefined-text-1" data-fill-palette-color="secondary" id="text-1"></path></svg></g></svg></g></svg></g></svg></g><g><svg viewBox="0 0 88.62437798818517 84.60235886947078" height="84.60235886947078" width="88.62437798818517"><g><svg xmlns="http://www.w3.org/2000/svg" xmlns:xlink="http://www.w3.org/1999/xlink" version="1.1" x="0" y="0" viewBox="10.790000000000008 8.615000000000006 83.59476121400732 79.80099999999999" enable-background="new 0 0 100 100" xml:space="preserve" height="84.60235886947078" width="88.62437798818517" class="icon-icon-0" data-fill-palette-color="accent" id="icon-0"><g fill="#ffffff" data-fill-palette-color="accent"><path d="M60.222 47.125c0.463 1.183 1.167 2.258 2.066 3.148C61.646 49 60.966 47.982 60.222 47.125zM60.222 47.125c0.463 1.183 1.167 2.258 2.066 3.148C61.646 49 60.966 47.982 60.222 47.125zM60.222 47.125c0.463 1.183 1.167 2.258 2.066 3.148C61.646 49 60.966 47.982 60.222 47.125zM60.222 47.125c0.463 1.183 1.167 2.258 2.066 3.148C61.646 49 60.966 47.982 60.222 47.125z" fill="#ffffff" data-fill-palette-color="accent"></path><path d="M94.288 38.87c-0.613 7.439-4.095 14.192-9.787 19.006-3.959 3.357-8.764 5.531-13.844 6.308l0.006-0.012 0.012-0.062c0.146-0.709 0.383-1.887 0.443-3.205 4.156-0.798 8.083-2.664 11.349-5.434 2.737-2.314 4.883-5.147 6.376-8.295-0.947-0.141-1.641-0.518-2.113-0.93-2.359-2.044-1.807-6.139-1.57-7.35 0.219-1.131-0.045-1.649-0.709-2.894-0.406-0.789-0.93-1.792-1.404-3.182-1.396-4.184 0.684-6.701 3.069-7.659 0.519-0.208 1.234-0.472 2.017-0.614-0.782-1.402-1.712-2.743-2.77-3.999-0.203-0.237-0.424-0.439-0.614-0.664-0.581 1.498-1.763 3.041-3.931 4.173-4.963 2.551-4.928 5.147-4.877 8.437v0.85c0 1.301 0 3.109-0.208 4.984-1.234-1.605-3.003-2.754-5.019-3.238-0.699-0.163-1.408-0.248-2.106-0.248-1.661 0-3.296 0.468-4.714 1.352-0.457 0.275-0.891 0.603-1.283 0.951-0.761 0.676-1.393 1.465-1.87 2.337-0.315-1.498-0.372-3.165-0.147-4.944 0.221-1.7-0.676-3.965-2.285-5.744-0.958-1.053-1.871-1.334-3.271-1.763-1.021-0.315-2.186-0.676-3.555-1.386-2.314-1.194-2.664-4.105-2.455-6.684-4.725 4.668-7.209 10.874-7.321 17.154 0.202 0.265 0.395 0.512 0.585 0.742-0.488-0.141-0.969-0.241-1.43-0.304-0.518-0.067-1.02-0.101-1.498-0.101h-0.13c-0.237 0-0.474 0.011-0.71 0.033 0.029-7.9 3.385-15.751 9.873-21.242 5.035-4.264 11.443-6.628 18.032-6.628 8.251 0 16.022 3.604 21.327 9.889C92.587 24.199 94.901 31.435 94.288 38.87z" fill="#ffffff" data-fill-palette-color="accent"></path><path d="M62.717 51.168l-0.507 2.118-0.164 0.681c-0.106 0.045-0.207 0.091-0.314 0.136-0.215 0.09-0.424 0.197-0.637 0.326-1.699 0.997-2.799 2.732-3.346 5.305-0.088 0.405-0.236 1.161-0.438 2.202l-0.056 0.277c-0.046 0.219-0.092 0.456-0.131 0.692-3.981-1.402-7.619-3.706-10.615-6.769 0.012-0.022 0.021-0.051 0.039-0.079 0.176-0.338 0.344-0.653 0.523-0.974l0.035-0.073c0.923-1.702 1.971-3.639 2.337-6.128 0.083-0.642 0.124-1.273 0.118-1.897-0.035-2.315-0.676-4.421-1.803-6.133 0.326 0.101 0.67 0.197 1.031 0.298 1.008 0.282 2.156 0.614 3.525 1.167 3.508 1.441 5.94 2.539 7.906 4.809 0.744 0.856 1.425 1.875 2.066 3.148C62.435 50.561 62.576 50.859 62.717 51.168z" fill="#ffffff" data-fill-palette-color="accent"></path><path d="M21.475 87.215l2.401-10.577c0.066-0.767-0.506-1.448-1.281-1.515-0.779-0.053-1.452 0.506-1.514 1.286l-2.426 10.806H21.475z" fill="#ffffff" data-fill-palette-color="accent"></path><path d="M75.308 40.733c-0.137-0.282-0.283-0.557-0.449-0.826-0.07-0.134-0.153-0.249-0.236-0.371-1.023-1.478-2.541-2.509-4.301-2.931-0.569-0.134-1.145-0.205-1.715-0.205-1.338 0-2.65 0.371-3.82 1.101-0.379 0.23-0.73 0.493-1.051 0.775-1.057 0.94-1.816 2.163-2.183 3.564-0.024 0.064-0.044 0.134-0.058 0.199-0.178 0.749-0.23 1.504-0.172 2.234 0.012 0.294 0.051 0.582 0.109 0.87 0.389 1.965 1.58 3.711 3.289 4.793l-0.864 3.616-0.173 0.69L63.46 55.19c-0.364 0.064-0.711 0.167-1.037 0.326-0.159 0.071-0.312 0.148-0.467 0.237-1.286 0.754-2.117 2.131-2.553 4.198-0.096 0.435-0.27 1.312-0.486 2.451-0.059 0.282-0.115 0.583-0.174 0.89-0.576 2.976-1.369 7.155-1.933 10.118-1.261-2.15-2.867-5.056-3.903-7.462-1.37-3.212-4.839-4.493-7.617-5.523-0.473-0.167-0.92-0.333-1.338-0.499-0.268-0.109-0.307-0.218-0.332-0.288-0.16-0.429 0.097-1.306 0.346-1.85 0.02-0.032 0.032-0.063 0.045-0.096 0.121-0.224 0.166-0.442 0.172-0.672 0.25-0.653 0.551-1.273 0.871-1.882 0.084-0.154 0.16-0.307 0.236-0.454 0.098-0.186 0.199-0.365 0.302-0.551 0.903-1.664 1.851-3.404 2.176-5.632 0.077-0.538 0.108-1.082 0.103-1.632-0.052-3.692-1.951-7.322-5.906-8.48-0.418-0.122-0.872-0.23-1.325-0.294-0.442-0.058-0.871-0.083-1.274-0.083h-0.108c-0.237 0-0.461 0.019-0.691 0.032-1.843 0.173-3.411 0.934-4.634 2.074-1.658 1.529-2.707 3.737-3.02 6.029-0.309 2.227 0.127 4.154 0.549 6.016 0.373 1.658 0.742 3.232 0.608 5.037h0.019c-0.057 0.781-0.229 1.562-0.436 1.805-4.024 0.058-9.311 0.788-11.812 3.949-2.605 3.277-7.021 17.306-8.949 23.923-0.037 0.122-0.068 0.23-0.102 0.339h2.887c1.664-5.703 6.131-19.757 8.34-22.541 1.434-1.812 4.902-2.842 9.753-2.894 1.972-0.019 3.136-1.971 3.11-5.209 0-0.141-0.025-0.262-0.063-0.391-0.032-1.728-0.371-3.27-0.673-4.652-0.396-1.69-0.768-3.271-0.531-5.005 0.135-0.947 0.449-1.907 0.922-2.752 0.877-1.574 2.336-2.791 4.326-2.963 0.166-0.013 0.327-0.02 0.5-0.02 0.281 0 0.569 0.013 0.875 0.058 2.889 0.396 4.366 2.457 4.77 4.755 0.152 0.833 0.167 1.696 0.045 2.522-0.211 1.542-0.871 2.854-1.594 4.186-0.084 0.16-0.167 0.313-0.25 0.467-0.09 0.167-0.186 0.333-0.275 0.505-0.434 0.807-0.877 1.677-1.254 2.63-0.135 0.339-0.263 0.691-0.379 1.062-0.006 0.038-0.024 0.071-0.037 0.109-0.326 0.826-0.717 2.234-0.25 3.5 0.314 0.871 0.986 1.542 1.908 1.907 0.441 0.186 0.922 0.365 1.414 0.55 2.4 0.877 5.12 1.882 6.021 3.994 1.979 4.602 5.806 10.688 5.966 10.938 0.263 0.404 0.724 0.653 1.203 0.653 0.077 0 0.153-0.013 0.237-0.02 0.549-0.115 0.99-0.55 1.094-1.12 0.025-0.109 1.619-8.525 2.599-13.562 0.12-0.659 0.243-1.261 0.345-1.773 0.104-0.551 0.193-1.011 0.27-1.344 0.012-0.116 0.037-0.211 0.058-0.294 0.211-1.031 0.524-1.734 0.94-2.131 0.09-0.116 0.192-0.186 0.307-0.243 0.289-0.173 0.652-0.256 1.096-0.256 0.447 0 0.973 0.083 1.567 0.269 0 0 0.007 0.006 0.013 0.006 0.051 0.013 0.115 0.045 0.187 0.102 0.007 0.006 0.007 0.006 0.013 0.02 0.172 0.154 0.37 0.518 0.422 1.292 0.025 0.353 0.019 0.793-0.025 1.357-0.014 0.096-0.014 0.192-0.026 0.294-0.07 0.538-0.172 1.177-0.325 1.92-0.058 0.269-0.143 0.685-0.25 1.222-0.084 0.442-0.186 0.96-0.301 1.543-0.89 4.557-2.49 12.755-3.449 16.339h0.006c-0.531 1.593-1.678 3.417-3.303 3.417-5.428 0-7.865-3.405-12.051-9.933-0.301-0.467-0.852-0.704-1.39-0.615-0.544 0.097-0.985 0.5-1.113 1.037l-2.624 11.06h2.83l1.734-7.296c3.295 4.922 6.501 8.5 12.613 8.5 3.321 0 5.51-3.194 6.215-6.361 0.006-0.045 0.013-0.084 0.02-0.128 0-0.007 0.006-0.014 0.006-0.02 0.999-4.051 2.406-11.283 3.232-15.482 0.173-0.889 0.32-1.638 0.422-2.169 0.045-0.224 0.083-0.409 0.121-0.551 0.115-0.582 0.32-1.567 0.403-2.662 0.032-0.417 0.046-0.858 0.032-1.293v-0.045c-0.051-1.363-0.391-2.7-1.363-3.539l0.064-0.294 1.165-4.857c0.62-0.051 1.222-0.192 1.804-0.404 0.462-0.16 0.908-0.377 1.338-0.633 1.684-1.03 2.85-2.637 3.296-4.551 0.122-0.499 0.187-1.017 0.198-1.529C75.972 42.807 75.761 41.731 75.308 40.733zM73.048 44.791c-0.064 0.263-0.146 0.518-0.262 0.762-0.365 0.851-0.98 1.562-1.787 2.055-0.607 0.377-1.279 0.607-1.978 0.659-0.126 0.013-0.263 0.02-0.39 0.02-0.359 0-0.711-0.039-1.062-0.115-1.178-0.282-2.15-1.011-2.771-1.971-0.186-0.288-0.339-0.608-0.461-0.935-0.287-0.8-0.357-1.69-0.146-2.579 0.287-1.178 1.011-2.189 2.049-2.823 0.729-0.448 1.555-0.672 2.385-0.672 0.347 0 0.705 0.039 1.051 0.115 1.178 0.282 2.189 1.012 2.815 2.055C73.131 42.397 73.329 43.62 73.048 44.791z" fill="#ffffff" data-fill-palette-color="accent"></path></g></svg></g></svg></g></svg></g></svg></g></svg></g><path d="M202.498 87.344L202.498 22.549 0.395 22.549 0.395 224.651 202.498 224.651 202.498 159.856 200.123 159.856 200.123 222.277 2.769 222.277 2.769 24.923 200.123 24.923 200.123 87.344Z" fill="#ffffff" stroke="transparent" data-fill-palette-color="primary"></path></svg></g><defs></defs></svg><rect width="395.52" height="247.2" fill="none" stroke="none" visibility="hidden"></rect></g></svg></g></svg>