<svg width="490" height="209" viewBox="0 0 490 209" fill="none" xmlns="http://www.w3.org/2000/svg">
<rect width="490" height="209" fill="#6936F5"/>
<path d="M200.03 85.0301L201.204 78.6126C201.365 77.7321 202.132 77.0932 203.025 77.0932C203.029 77.0932 203.031 77.0932 203.035 77.0932C203.933 77.0969 204.697 77.7441 204.85 78.6283L215.412 139.479L269.24 139.481C270.53 139.481 271.723 138.947 272.604 137.98C273.613 136.868 274.175 135.21 274.04 133.788C273.645 130.363 271.169 127.876 268.156 127.876H223.235C222.332 127.876 221.56 127.225 221.41 126.334L210.894 64.1611C210.803 63.6231 210.953 63.0731 211.306 62.6565C211.657 62.2398 212.174 62 212.719 62H257.605C267.844 62 277.84 70.3276 279.89 80.557L289.48 127.516C290.343 133.014 289.004 138.183 285.71 142.072C282.475 145.892 277.731 147.995 272.353 147.995L271.495 147.993C271.479 147.993 271.463 147.994 271.444 147.994C268.58 147.996 213.793 148 213.222 148C211.148 148 209.382 146.515 209.015 144.429L200.022 85.6412C199.989 85.4393 199.994 85.231 200.03 85.0301Z" fill="white"/>
<path d="M99.8721 65.9C103.572 65.9 106.805 66.6333 109.572 68.1C112.339 69.5667 114.472 71.6333 115.972 74.3C117.505 76.9333 118.272 79.9833 118.272 83.45C118.272 86.8833 117.505 89.9333 115.972 92.6C114.472 95.2667 112.322 97.3333 109.522 98.8C106.755 100.267 103.539 101 99.8721 101H86.7221V65.9H99.8721ZM99.3221 93.6C102.555 93.6 105.072 92.7167 106.872 90.95C108.672 89.1833 109.572 86.6833 109.572 83.45C109.572 80.2167 108.672 77.7 106.872 75.9C105.072 74.1 102.555 73.2 99.3221 73.2H95.2721V93.6H99.3221ZM127.35 70.2C125.85 70.2 124.617 69.7667 123.65 68.9C122.717 68 122.25 66.9 122.25 65.6C122.25 64.2667 122.717 63.1667 123.65 62.3C124.617 61.4 125.85 60.95 127.35 60.95C128.817 60.95 130.017 61.4 130.95 62.3C131.917 63.1667 132.4 64.2667 132.4 65.6C132.4 66.9 131.917 68 130.95 68.9C130.017 69.7667 128.817 70.2 127.35 70.2ZM131.6 73.1V101H123.05V73.1H131.6ZM148.396 72.7C150.363 72.7 152.08 73.1 153.546 73.9C155.046 74.7 156.196 75.75 156.996 77.05V73.1H165.546V100.95C165.546 103.517 165.03 105.833 163.996 107.9C162.996 110 161.446 111.667 159.346 112.9C157.28 114.133 154.696 114.75 151.596 114.75C147.463 114.75 144.113 113.767 141.546 111.8C138.98 109.867 137.513 107.233 137.146 103.9H145.596C145.863 104.967 146.496 105.8 147.496 106.4C148.496 107.033 149.73 107.35 151.196 107.35C152.963 107.35 154.363 106.833 155.396 105.8C156.463 104.8 156.996 103.183 156.996 100.95V97C156.163 98.3 155.013 99.3667 153.546 100.2C152.08 101 150.363 101.4 148.396 101.4C146.096 101.4 144.013 100.817 142.146 99.65C140.28 98.45 138.796 96.7667 137.696 94.6C136.63 92.4 136.096 89.8667 136.096 87C136.096 84.1333 136.63 81.6167 137.696 79.45C138.796 77.2833 140.28 75.6167 142.146 74.45C144.013 73.2833 146.096 72.7 148.396 72.7ZM156.996 87.05C156.996 84.9167 156.396 83.2333 155.196 82C154.03 80.7667 152.596 80.15 150.896 80.15C149.196 80.15 147.746 80.7667 146.546 82C145.38 83.2 144.796 84.8667 144.796 87C144.796 89.1333 145.38 90.8333 146.546 92.1C147.746 93.3333 149.196 93.95 150.896 93.95C152.596 93.95 154.03 93.3333 155.196 92.1C156.396 90.8667 156.996 89.1833 156.996 87.05ZM176.032 70.2C174.532 70.2 173.299 69.7667 172.332 68.9C171.399 68 170.932 66.9 170.932 65.6C170.932 64.2667 171.399 63.1667 172.332 62.3C173.299 61.4 174.532 60.95 176.032 60.95C177.499 60.95 178.699 61.4 179.632 62.3C180.599 63.1667 181.082 64.2667 181.082 65.6C181.082 66.9 180.599 68 179.632 68.9C178.699 69.7667 177.499 70.2 176.032 70.2ZM180.282 73.1V101H171.732V73.1H180.282Z" fill="white"/>
<path d="M321.786 148.35C319.22 148.35 316.92 147.933 314.886 147.1C312.853 146.267 311.22 145.033 309.986 143.4C308.786 141.767 308.153 139.8 308.086 137.5H317.186C317.32 138.8 317.77 139.8 318.536 140.5C319.303 141.167 320.303 141.5 321.536 141.5C322.803 141.5 323.803 141.217 324.536 140.65C325.27 140.05 325.636 139.233 325.636 138.2C325.636 137.333 325.336 136.617 324.736 136.05C324.17 135.483 323.453 135.017 322.586 134.65C321.753 134.283 320.553 133.867 318.986 133.4C316.72 132.7 314.87 132 313.436 131.3C312.003 130.6 310.77 129.567 309.736 128.2C308.703 126.833 308.186 125.05 308.186 122.85C308.186 119.583 309.37 117.033 311.736 115.2C314.103 113.333 317.186 112.4 320.986 112.4C324.853 112.4 327.97 113.333 330.336 115.2C332.703 117.033 333.97 119.6 334.136 122.9H324.886C324.82 121.767 324.403 120.883 323.636 120.25C322.87 119.583 321.886 119.25 320.686 119.25C319.653 119.25 318.82 119.533 318.186 120.1C317.553 120.633 317.236 121.417 317.236 122.45C317.236 123.583 317.77 124.467 318.836 125.1C319.903 125.733 321.57 126.417 323.836 127.15C326.103 127.917 327.936 128.65 329.336 129.35C330.77 130.05 332.003 131.067 333.036 132.4C334.07 133.733 334.586 135.45 334.586 137.55C334.586 139.55 334.07 141.367 333.036 143C332.036 144.633 330.57 145.933 328.636 146.9C326.703 147.867 324.42 148.35 321.786 148.35ZM356.998 119.8C360.198 119.8 362.765 120.867 364.698 123C366.631 125.1 367.598 128 367.598 131.7V148H359.098V132.85C359.098 130.983 358.615 129.533 357.648 128.5C356.681 127.467 355.381 126.95 353.748 126.95C352.115 126.95 350.815 127.467 349.848 128.5C348.881 129.533 348.398 130.983 348.398 132.85V148H339.848V111H348.398V123.85C349.265 122.617 350.448 121.633 351.948 120.9C353.448 120.167 355.131 119.8 356.998 119.8ZM399.839 133.6C399.839 134.4 399.789 135.233 399.689 136.1H380.339C380.473 137.833 381.023 139.167 381.989 140.1C382.989 141 384.206 141.45 385.639 141.45C387.773 141.45 389.256 140.55 390.089 138.75H399.189C398.723 140.583 397.873 142.233 396.639 143.7C395.439 145.167 393.923 146.317 392.089 147.15C390.256 147.983 388.206 148.4 385.939 148.4C383.206 148.4 380.773 147.817 378.639 146.65C376.506 145.483 374.839 143.817 373.639 141.65C372.439 139.483 371.839 136.95 371.839 134.05C371.839 131.15 372.423 128.617 373.589 126.45C374.789 124.283 376.456 122.617 378.589 121.45C380.723 120.283 383.173 119.7 385.939 119.7C388.639 119.7 391.039 120.267 393.139 121.4C395.239 122.533 396.873 124.15 398.039 126.25C399.239 128.35 399.839 130.8 399.839 133.6ZM391.089 131.35C391.089 129.883 390.589 128.717 389.589 127.85C388.589 126.983 387.339 126.55 385.839 126.55C384.406 126.55 383.189 126.967 382.189 127.8C381.223 128.633 380.623 129.817 380.389 131.35H391.089ZM412.9 111V148H404.35V111H412.9ZM433.096 127.2H428.496V148H419.946V127.2H416.846V120.1H419.946V119.3C419.946 115.867 420.929 113.267 422.896 111.5C424.863 109.7 427.746 108.8 431.546 108.8C432.179 108.8 432.646 108.817 432.946 108.85V116.1C431.313 116 430.163 116.233 429.496 116.8C428.829 117.367 428.496 118.383 428.496 119.85V120.1H433.096V127.2Z" fill="white"/>
</svg>
